<?xml version="1.0" encoding="iso-8859-1"?>
<!-- Generator: Adobe Illustrator 18.0.0, SVG Export Plug-In . SVG Version: 6.00 Build 0)  -->
<!DOCTYPE svg PUBLIC "-//W3C//DTD SVG 1.1//EN" "http://www.w3.org/Graphics/SVG/1.1/DTD/svg11.dtd">
<svg version="1.1" id="Layer_1" xmlns="http://www.w3.org/2000/svg" xmlns:xlink="http://www.w3.org/1999/xlink" x="0px" y="0px"
	 viewBox="0 0 112 109.5" style="enable-background:new 0 0 112 109.5;" xml:space="preserve">
<ellipse style="fill:#FFFFFF;" cx="56" cy="54.75" rx="56" ry="54.75"/>
<g>
	<path style="fill:#4A4B54;" d="M35.028,26.676v4.358h-3.631v4.358h3.631v10.168h-3.631v4.358h3.631v10.168h-3.631v4.358h3.631
		v10.168h-3.631v4.358h3.631v4.358h43.576V26.676H35.028z M60.406,46.285l-3.591-1.888l-3.591,1.888l0.686-3.999l-2.905-2.831
		l4.014-0.584l1.796-3.638l1.796,3.638l4.014,0.584l-2.905,2.831L60.406,46.285z M69.888,50.642V55H43.743v-4.358H69.888z
		 M69.888,59.358v4.358H43.743v-4.358H69.888z M69.888,68.073v4.358H43.743v-4.358H69.888z M69.888,68.073"/>
</g>
</svg>
