<?xml version="1.0" encoding="iso-8859-1"?>
<!-- Generator: Adobe Illustrator 18.0.0, SVG Export Plug-In . SVG Version: 6.00 Build 0)  -->
<!DOCTYPE svg PUBLIC "-//W3C//DTD SVG 1.1//EN" "http://www.w3.org/Graphics/SVG/1.1/DTD/svg11.dtd">
<svg version="1.1" id="Layer_1" xmlns="http://www.w3.org/2000/svg" xmlns:xlink="http://www.w3.org/1999/xlink" x="0px" y="0px"
	 viewBox="0 0 112 109.5" style="enable-background:new 0 0 112 109.5;" xml:space="preserve">
<ellipse style="fill:#FFFFFF;" cx="56" cy="54.75" rx="56" ry="54.75"/>
<g>
	<path style="fill:#4A4B54;" d="M36.956,67.212c6.583,0.128,12.287,1.113,16.497,2.847c0.072,0.029,0.148,0.044,0.223,0.044
		c0.114,0,0.228-0.034,0.326-0.099c0.162-0.108,0.26-0.291,0.26-0.487l0.002-31.467c0-0.24-0.146-0.456-0.37-0.544l-16.71-6.649
		c-0.18-0.072-0.385-0.05-0.546,0.059c-0.161,0.109-0.257,0.291-0.257,0.485v35.225C36.381,66.946,36.637,67.206,36.956,67.212
		L36.956,67.212z M36.956,67.212"/>
	<path style="fill:#4A4B54;" d="M84.829,36.444c-0.148-0.11-0.34-0.144-0.518-0.091l-5.91,1.767
		c-0.248,0.074-0.418,0.303-0.418,0.561v30.397c0,0,0.026,0.48-0.479,0.48h-0.958c-4.767,0-13.628,0.495-19.4,3.81L56,74.024
		l-1.146-0.656c-5.773-3.315-14.633-3.81-19.4-3.81h-1.223c-0.228,0-0.214-0.274-0.214-0.274V38.682c0-0.259-0.17-0.487-0.418-0.561
		l-5.911-1.767c-0.177-0.053-0.37-0.019-0.518,0.091c-0.148,0.111-0.236,0.285-0.236,0.47v36.777c0,0.165,0.07,0.323,0.192,0.434
		c0.123,0.111,0.286,0.165,0.451,0.149c1.756-0.172,4.503-0.377,7.61-0.377c6.824,0,12.308,0.997,15.862,2.883
		c0.522,0.274,3.549,1.905,4.951,1.905c1.401,0,4.428-1.631,4.95-1.905c3.554-1.887,9.038-2.883,15.862-2.883
		c3.106,0,5.853,0.205,7.609,0.377c0.165,0.016,0.329-0.038,0.451-0.149c0.123-0.111,0.192-0.269,0.192-0.434V36.915
		C85.065,36.729,84.978,36.555,84.829,36.444L84.829,36.444z M84.829,36.444"/>
	<path style="fill:#4A4B54;" d="M57.999,70.004c0.098,0.066,0.211,0.099,0.326,0.099c0.075,0,0.151-0.015,0.223-0.044
		c4.209-1.735,9.914-2.719,16.497-2.847c0.319-0.006,0.574-0.267,0.574-0.586V31.401c0-0.194-0.096-0.376-0.257-0.485
		c-0.161-0.109-0.365-0.131-0.546-0.059l-16.71,6.649c-0.223,0.089-0.37,0.304-0.37,0.544l0.002,31.467
		C57.739,69.712,57.836,69.895,57.999,70.004L57.999,70.004z M57.999,70.004"/>
</g>
</svg>
