<?xml version="1.0" encoding="iso-8859-1"?>
<!-- Generator: Adobe Illustrator 18.0.0, SVG Export Plug-In . SVG Version: 6.00 Build 0)  -->
<!DOCTYPE svg PUBLIC "-//W3C//DTD SVG 1.1//EN" "http://www.w3.org/Graphics/SVG/1.1/DTD/svg11.dtd">
<svg version="1.1" id="Layer_1" xmlns="http://www.w3.org/2000/svg" xmlns:xlink="http://www.w3.org/1999/xlink" x="0px" y="0px"
	 viewBox="0 0 112 109.5" style="enable-background:new 0 0 112 109.5;" xml:space="preserve">
<ellipse style="fill:#FFFFFF;" cx="56" cy="54.75" rx="56" ry="54.75"/>
<g>
	<path style="fill:#4A4B54;" d="M74.046,76.445l7.462-31.502l-22.05-2.169l1.118-1.663l-4.25-5.261l1.723-1.392l3.015,3.735
		l-0.867,0.69l2.547,3.162l2.677-2.169l-2.54-3.152l-0.573,0.458l-3.015-3.725l1.051-0.857l-1.305-1.613L35.697,49.835l1.305,1.623
		L40.54,48.6l4.25,5.261l0.819-0.341l-2.56,13.413v-0.01l-20.365,3.025l27.164,9.745L74.046,76.445z M47.534,52.724l7.315-3.045
		l3.199-4.775l20.073,2.355L71.84,73.8l-26.923-7.617L47.534,52.724z M43.09,75.892l-6.673-2.55l3.219-0.428l7.48,2.5L43.09,75.892z
		 M43.09,75.892"/>
	<path style="fill:#4A4B54;" d="M75.642,77.545l-25.88,3.782v-0.01L22.227,71.241v1.566l27.349,10.467l27.468-4.367l7.701-31.913
		l-1.671-1.168L75.642,77.545z M75.642,77.545"/>
	<path style="fill:#4A4B54;" d="M32.867,63.286c0.595-0.137,1.13-0.378,1.616-0.69l0.857,0.642l0.515-0.692l4.278,3.172l1.237-1.683
		l-4.28-3.162l0.418-0.563l-0.886-0.652c0.224-0.807,0.254-1.683,0.05-2.547c-0.662-2.754-3.433-4.464-6.187-3.805
		c-2.751,0.662-4.454,3.434-3.792,6.187C27.344,62.245,30.115,63.948,32.867,63.286L32.867,63.286z M30.982,55.398
		c1.604-0.388,3.219,0.603,3.598,2.209c0.388,1.604-0.602,3.219-2.208,3.598c-1.593,0.388-3.209-0.602-3.598-2.206
		C28.385,57.392,29.376,55.779,30.982,55.398L30.982,55.398z M30.982,55.398"/>
	<path style="fill:#4A4B54;" d="M66.412,31.774c0.769,0.924,1.927,1.516,3.219,1.526c0.01,0,0.02,0,0.02,0h0.01
		c1.302,0,2.48-0.593,3.257-1.526c0.07-0.077,0.137-0.174,0.204-0.264c0.488-0.69,0.779-1.536,0.779-2.44
		c0-0.914-0.291-1.75-0.779-2.44c-0.067-0.09-0.134-0.187-0.204-0.274c-0.777-0.924-1.954-1.526-3.257-1.526h-0.03
		c-1.292,0.01-2.45,0.603-3.219,1.526c-0.077,0.087-0.137,0.184-0.204,0.274c-0.495,0.69-0.787,1.526-0.787,2.44
		c0,0.904,0.291,1.75,0.787,2.44C66.268,31.6,66.335,31.697,66.412,31.774L66.412,31.774z M70.867,32.765
		c0.398-0.379,0.719-0.934,0.954-1.604c0.301,0.117,0.583,0.251,0.807,0.408C72.171,32.115,71.566,32.533,70.867,32.765
		L70.867,32.765z M72.831,31.306c-0.261-0.184-0.573-0.339-0.914-0.466c0.117-0.448,0.194-0.944,0.224-1.459h1.389
		C73.474,30.091,73.23,30.753,72.831,31.306L72.831,31.306z M73.551,29.03h-1.409c0-0.613-0.077-1.205-0.224-1.73
		c0.341-0.127,0.652-0.281,0.924-0.466C73.28,27.456,73.541,28.213,73.551,29.03L73.551,29.03z M72.627,26.57
		c-0.224,0.157-0.505,0.291-0.807,0.408c-0.224-0.67-0.555-1.225-0.954-1.604C71.566,25.596,72.171,26.025,72.627,26.57
		L72.627,26.57z M69.836,25.198c0.7,0.107,1.312,0.837,1.653,1.887c-0.496,0.147-1.061,0.234-1.653,0.244V25.198z M69.836,27.678
		c0.623-0.01,1.225-0.107,1.75-0.271c0.127,0.495,0.204,1.051,0.204,1.623h-1.955V27.678z M69.836,29.381h1.955
		c-0.02,0.476-0.097,0.934-0.204,1.342c-0.535-0.154-1.128-0.254-1.75-0.271V29.381z M69.836,30.8
		c0.593,0.02,1.158,0.107,1.653,0.254c-0.341,1.051-0.954,1.78-1.653,1.887V30.8z M66.684,31.57
		c0.234-0.157,0.508-0.291,0.799-0.398c0.224,0.65,0.545,1.205,0.944,1.584C67.744,32.523,67.142,32.105,66.684,31.57L66.684,31.57z
		 M69.485,32.942c-0.71-0.097-1.322-0.827-1.671-1.877c0.495-0.157,1.068-0.244,1.671-0.264V32.942z M69.485,30.452
		c-0.63,0.017-1.235,0.117-1.768,0.281c-0.107-0.418-0.187-0.867-0.204-1.352h1.972V30.452z M69.485,29.03h-1.972
		c0-0.583,0.077-1.128,0.204-1.623c0.533,0.157,1.138,0.261,1.768,0.271V29.03z M69.485,25.188v2.141
		c-0.603-0.01-1.165-0.097-1.671-0.254C68.163,26.025,68.775,25.295,69.485,25.188L69.485,25.188z M68.427,25.385
		c-0.391,0.378-0.72,0.924-0.944,1.584c-0.291-0.117-0.565-0.241-0.799-0.398C67.142,26.035,67.744,25.616,68.427,25.385
		L68.427,25.385z M66.48,26.834c0.264,0.174,0.575,0.329,0.906,0.456c-0.137,0.535-0.224,1.118-0.224,1.741H65.77
		C65.78,28.213,66.044,27.456,66.48,26.834L66.48,26.834z M67.162,29.381c0.03,0.515,0.107,1.011,0.224,1.459
		c-0.331,0.127-0.642,0.281-0.906,0.458c-0.379-0.555-0.63-1.208-0.69-1.917H67.162z M67.162,29.381"/>
	<path style="fill:#4A4B54;" d="M46.989,29.1c-1.108,0.184-1.847,1.225-1.663,2.323c0.187,1.1,1.228,1.84,2.326,1.653
		c1.098-0.184,1.847-1.225,1.653-2.323C49.12,29.652,48.079,28.913,46.989,29.1L46.989,29.1z M48.274,30.927
		c0.087,0.525-0.264,1.031-0.797,1.118c-0.525,0.087-1.031-0.271-1.12-0.797c-0.087-0.525,0.274-1.031,0.799-1.118
		C47.681,30.043,48.187,30.402,48.274,30.927L48.274,30.927z M48.274,30.927"/>
	<path style="fill:#4A4B54;" d="M43.351,29.401l-2.946,4.24l2.343-0.388l2.948-4.24l-4.163-3.055l-2.393,0.194l4.22,3.249H43.351z
		 M44.238,28.661c0.281-0.05,0.545,0.147,0.593,0.418c0.05,0.281-0.137,0.555-0.428,0.602c-0.281,0.04-0.543-0.147-0.583-0.428
		C43.77,28.973,43.956,28.709,44.238,28.661L44.238,28.661z M44.238,28.661"/>
	<path style="fill:#4A4B54;" d="M72.179,51.372l-9.317-1.322l0.575,2.674l1.312,0.127l0.593,2.741l-1.148,0.622l0.595,2.754l7.945-5
		L72.179,51.372z M67.085,54.658l-0.351-1.633l2.831,0.254l0.01,0.027L67.085,54.658z M67.085,54.658"/>
	<path style="fill:#4A4B54;" d="M58.662,63.159c-0.107-0.144-0.244-0.261-0.388-0.349c-0.147-0.097-0.304-0.167-0.458-0.224
		c0.261-0.147,0.476-0.321,0.632-0.535c0.154-0.204,0.234-0.486,0.234-0.847c0-0.174-0.03-0.368-0.09-0.583
		c-0.057-0.204-0.174-0.398-0.339-0.575c-0.167-0.184-0.398-0.329-0.692-0.446c-0.291-0.107-0.67-0.167-1.138-0.167h-3.869v7.061
		h4.016c0.301,0,0.613-0.037,0.904-0.134c0.301-0.09,0.565-0.224,0.789-0.411c0.232-0.174,0.428-0.398,0.563-0.66
		c0.147-0.274,0.214-0.585,0.214-0.944c0-0.254-0.037-0.476-0.107-0.68C58.866,63.47,58.779,63.295,58.662,63.159L58.662,63.159z
		 M54.732,61.117h1.148c0.222,0,0.408,0.04,0.543,0.107c0.137,0.067,0.194,0.194,0.194,0.379c0,0.224-0.057,0.381-0.194,0.458
		c-0.124,0.087-0.311,0.127-0.543,0.127h-1.148V61.117z M56.794,64.483c-0.05,0.087-0.107,0.154-0.184,0.204
		c-0.09,0.047-0.177,0.077-0.274,0.097c-0.107,0.027-0.214,0.037-0.321,0.037h-1.282V63.5h1.369c0.508,0,0.759,0.214,0.759,0.642
		C56.861,64.279,56.841,64.394,56.794,64.483L56.794,64.483z M56.794,64.483"/>
	<path style="fill:#4A4B54;" d="M28.743,41.947c0.428,0.485,0.904,0.874,1.429,1.168c0.515,0.291,1.061,0.466,1.626,0.525
		c0.563,0.047,1.128-0.02,1.691-0.204c0.585-0.187,1.13-0.518,1.673-0.993c0.478-0.428,0.837-0.884,1.071-1.382
		c0.234-0.496,0.361-0.981,0.388-1.477c0.02-0.488-0.047-0.954-0.204-1.402c-0.154-0.438-0.378-0.827-0.67-1.158l-2.004,1.77
		c0.107,0.177,0.194,0.361,0.261,0.545c0.07,0.174,0.1,0.361,0.107,0.525c0,0.174-0.027,0.341-0.107,0.505
		c-0.067,0.164-0.184,0.321-0.359,0.476c-0.244,0.204-0.486,0.341-0.749,0.371c-0.241,0.04-0.495,0.01-0.749-0.067
		c-0.251-0.1-0.486-0.224-0.719-0.411c-0.232-0.174-0.456-0.369-0.65-0.593c-0.197-0.224-0.371-0.466-0.515-0.72
		c-0.147-0.251-0.254-0.505-0.311-0.767c-0.06-0.254-0.05-0.508,0.017-0.759c0.07-0.244,0.224-0.478,0.458-0.682
		c0.214-0.184,0.418-0.301,0.622-0.339c0.204-0.04,0.388-0.04,0.565-0.01c0.174,0.037,0.319,0.097,0.446,0.174
		c0.127,0.087,0.224,0.147,0.291,0.204l1.984-1.76c-0.827-0.759-1.681-1.138-2.587-1.158c-0.894-0.01-1.798,0.391-2.724,1.188
		c-0.515,0.456-0.894,0.944-1.165,1.479c-0.254,0.525-0.398,1.068-0.428,1.633c-0.02,0.563,0.077,1.128,0.291,1.693
		C27.946,40.887,28.288,41.432,28.743,41.947L28.743,41.947z M28.743,41.947"/>
</g>
</svg>
