<?xml version="1.0" encoding="iso-8859-1"?>
<!-- Generator: Adobe Illustrator 18.0.0, SVG Export Plug-In . SVG Version: 6.00 Build 0)  -->
<!DOCTYPE svg PUBLIC "-//W3C//DTD SVG 1.1//EN" "http://www.w3.org/Graphics/SVG/1.1/DTD/svg11.dtd">
<svg version="1.1" id="Layer_1" xmlns="http://www.w3.org/2000/svg" xmlns:xlink="http://www.w3.org/1999/xlink" x="0px" y="0px"
	 viewBox="0 0 112 109.5" style="enable-background:new 0 0 112 109.5;" xml:space="preserve">
<ellipse style="fill:#FFFFFF;" cx="56" cy="54.75" rx="56" ry="54.75"/>
<g>
	<path style="fill:#4A4B54;" d="M83.372,62.392c-3.732,0.23-8.64,3.959-13.373,6.103C64.194,71.12,55.161,69.01,55.16,69.01
		c1.396-0.655,7.059-2.003,8.198-2.505c6.061-2.665,5.545-8.225,2.659-8.179c-3.811,0.065-6.053,1-13.662,2.038
		c-5.768,0.784-12.591,0.497-15.862,1.747c-4.62,1.764-12.056,13.635-12.056,13.635l11.501,11.147c0,0,7.122-7.014,10.586-7.014
		c7.897,0,8.215-0.108,15.546-0.504c3.119-0.167,3.767-0.295,5.553-0.896c9.505-3.213,19.708-11.769,19.895-12.8
		C87.949,63.297,85.341,62.269,83.372,62.392L83.372,62.392z M83.372,62.392"/>
	<path style="fill:#4A4B54;" d="M35.94,54.32c0.317,0.203,0.713,0.235,1.052,0.082c6.156-2.765,12.398-2.765,18.554,0
		c0.288,0.127,0.62,0.127,0.908,0c6.156-2.765,12.398-2.765,18.553,0c0.142,0.064,0.299,0.096,0.451,0.096
		c0.212,0,0.421-0.06,0.603-0.178c0.314-0.203,0.505-0.551,0.505-0.927V25.857c0-0.754-0.64-1.006-0.66-1.014
		c-3.302-1.484-6.69-2.237-10.066-2.237c-2.971,0-5.952,0.587-8.878,1.74v13.517c0,0.532-0.428,0.962-0.962,0.962
		c-0.529,0-0.962-0.431-0.962-0.962V24.346c-2.923-1.152-5.903-1.74-8.874-1.74c-3.376,0-6.765,0.753-10.069,2.237
		c-0.02,0.009-0.659,0.337-0.659,1.014v27.535C35.434,53.768,35.624,54.117,35.94,54.32L35.94,54.32z M37.645,48.163
		c2.809-1.111,5.668-1.675,8.516-1.675c3.215,0,6.452,0.719,9.612,2.14c0.142,0.064,0.308,0.064,0.451,0
		c3.16-1.421,6.397-2.14,9.614-2.14c2.847,0,5.706,0.564,8.514,1.675v3.575c-2.844-1.072-5.738-1.614-8.626-1.614
		c-3.262,0-6.533,0.692-9.728,2.062c-3.193-1.37-6.464-2.062-9.727-2.062c-2.887,0-5.781,0.542-8.626,1.614V48.163z M37.645,48.163"
		/>
</g>
</svg>
