<?xml version="1.0" encoding="iso-8859-1"?>
<!-- Generator: Adobe Illustrator 18.0.0, SVG Export Plug-In . SVG Version: 6.00 Build 0)  -->
<!DOCTYPE svg PUBLIC "-//W3C//DTD SVG 1.1//EN" "http://www.w3.org/Graphics/SVG/1.1/DTD/svg11.dtd">
<svg version="1.1" id="Layer_1" xmlns="http://www.w3.org/2000/svg" xmlns:xlink="http://www.w3.org/1999/xlink" x="0px" y="0px"
	 viewBox="0 0 112 109.5" style="enable-background:new 0 0 112 109.5;" xml:space="preserve">
<ellipse style="fill:#FFFFFF;" cx="56" cy="54.75" rx="56" ry="54.75"/>
<g>
	<path style="fill:#4A4B54;" d="M63.589,51.004c0.83,0.219,1.634,0.425,1.814,0.491c6.766,1.979,11.827,8.214,11.827,15.617v13.209
		c0,0-0.811,0.384-1.096,0.484c-5.093,1.8-9.249,2.431-13.3,2.975l-2.842-26.077L63.589,51.004z M63.589,51.004"/>
	<path style="fill:#4A4B54;" d="M34.843,67.112c0-7.396,5.073-13.639,11.833-15.617c0.178-0.059,0.836-0.272,1.659-0.491
		l3.587,6.706L49.08,83.787c-4.058-0.544-8.493-1.481-13.287-2.982L34.77,80.52L34.843,67.112z M34.843,67.112"/>
	<path style="fill:#4A4B54;" d="M53.49,57.392l-2.351,22.682l4.92,5.957l4.921-5.957l-2.344-22.682l3.619-6.715
		c-0.711-0.192-1.727-0.179-2.065-0.179h-8.26c-0.333,0-1.348-0.014-2.065,0.179L53.49,57.392z M54.724,57.111l-3.014-5.543
		l8.733-0.014L57.42,57.1l1.979,22.431l-3.34,4.25l-3.293-4.303L54.724,57.111z M54.724,57.111"/>
	<path style="fill:#4A4B54;" d="M68.006,32.019l-11.952,1.759L44.1,32.025l1.681-7.272h-8.056v-2.217h36.403v2.217h-7.803
		L68.006,32.019z M68.006,32.019"/>
	<path style="fill:#4A4B54;" d="M67.985,33.831c0.126,0.717,0.199,1.462,0.199,2.218c0,6.898-5.465,12.484-12.199,12.484
		c-6.732,0-12.19-5.586-12.19-12.484c0-0.763,0.073-1.508,0.199-2.239l12.053,1.773L67.985,33.831z M67.985,33.831"/>
</g>
</svg>
