<?xml version="1.0" encoding="iso-8859-1"?>
<!-- Generator: Adobe Illustrator 18.0.0, SVG Export Plug-In . SVG Version: 6.00 Build 0)  -->
<!DOCTYPE svg PUBLIC "-//W3C//DTD SVG 1.1//EN" "http://www.w3.org/Graphics/SVG/1.1/DTD/svg11.dtd">
<svg version="1.1" id="Layer_1" xmlns="http://www.w3.org/2000/svg" xmlns:xlink="http://www.w3.org/1999/xlink" x="0px" y="0px"
	 viewBox="0 0 112 109.5" style="enable-background:new 0 0 112 109.5;" xml:space="preserve">
<ellipse style="fill:#FFFFFF;" cx="56" cy="54.75" rx="56" ry="54.75"/>
<g>
	<path style="fill:#4A4B54;" d="M57.819,55.425c2.021-0.953,2.677-3.775,1.478-6.287c-1.2-2.512-3.804-3.783-5.814-2.819
		c-2.019,0.953-2.675,3.775-1.475,6.297C53.207,55.128,55.811,56.388,57.819,55.425L57.819,55.425z M57.819,55.425"/>
	<path style="fill:#4A4B54;" d="M63.859,40.412c1.929,12.12-6.696,21.205-6.696,21.205s-7.106-12.028-19.06-15.666
		C61.358,62.961,48.12,84.166,48.12,84.166h6.738C54.858,84.166,70.503,57.157,63.859,40.412L63.859,40.412z M63.859,40.412"/>
	<path style="fill:#4A4B54;" d="M50.724,41.796c-0.123-0.194-0.255-0.399-0.389-0.625c-0.617-1.066-0.892-2.05-0.892-2.05
		s0.709,0.748,1.323,1.803c0.123,0.226,0.236,0.441,0.339,0.656c0.102-0.512,0.215-1.546-0.278-2.399
		c-0.675-1.179-2.244-1.538-2.244-1.538s-0.462,1.538,0.215,2.709C49.288,41.202,50.243,41.633,50.724,41.796L50.724,41.796z
		 M50.724,41.796"/>
	<path style="fill:#4A4B54;" d="M66.167,50.718c0.391,0.328,1.242,0.942,2.226,0.942c1.352,0,2.449-1.168,2.449-1.168
		s-1.097-1.168-2.449-1.168c-0.984,0-1.835,0.614-2.226,0.953c0.236-0.021,0.483-0.032,0.738-0.032c1.231,0,2.226,0.247,2.226,0.247
		s-0.995,0.247-2.226,0.247C66.65,50.749,66.403,50.728,66.167,50.718L66.167,50.718z M66.167,50.718"/>
	<path style="fill:#4A4B54;" d="M61.245,40.924c0.614-1.055,1.323-1.803,1.323-1.803s-0.276,0.995-0.903,2.05
		c-0.123,0.226-0.255,0.431-0.389,0.625c0.491-0.163,1.446-0.593,1.937-1.444c0.677-1.171,0.215-2.709,0.215-2.709
		s-1.57,0.37-2.244,1.538c-0.494,0.853-0.381,1.887-0.289,2.399C60.998,41.376,61.111,41.15,61.245,40.924L61.245,40.924z
		 M61.245,40.924"/>
	<path style="fill:#4A4B54;" d="M55.451,34.527c0-2.727,0.554-4.943,0.554-4.943s0.543,2.215,0.543,4.943
		c0,0.585-0.021,1.129-0.06,1.641c0.748-0.861,2.121-2.738,2.121-4.932c0-3.014-2.604-5.455-2.604-5.455s-2.604,2.441-2.604,5.455
		c0,2.194,1.373,4.071,2.121,4.932C55.483,35.656,55.451,35.112,55.451,34.527L55.451,34.527z M55.451,34.527"/>
	<path style="fill:#4A4B54;" d="M38.019,43.119c1.898,1.097,4.216,0.843,5.344,0.627c-0.473-0.215-0.966-0.472-1.457-0.759
		c-2.368-1.365-4.008-2.943-4.008-2.943s2.192,0.625,4.552,1.987c0.501,0.299,0.963,0.596,1.394,0.882
		c-0.378-1.087-1.313-3.208-3.218-4.305c-2.607-1.509-6.03-0.472-6.03-0.472S35.404,41.612,38.019,43.119L38.019,43.119z
		 M38.019,43.119"/>
	<path style="fill:#4A4B54;" d="M73.981,57.866c-1.898-1.087-4.205-0.843-5.334-0.627c0.472,0.226,0.956,0.472,1.457,0.759
		c2.36,1.365,4.008,2.943,4.008,2.943s-2.192-0.625-4.562-1.987c-0.501-0.289-0.953-0.585-1.383-0.882
		c0.368,1.087,1.313,3.208,3.208,4.305c2.617,1.509,6.03,0.472,6.03,0.472S76.596,59.373,73.981,57.866L73.981,57.866z
		 M73.981,57.866"/>
	<path style="fill:#4A4B54;" d="M43.833,58.071c-0.42,0.297-0.882,0.583-1.383,0.882c-2.36,1.362-4.552,1.998-4.552,1.998
		s1.641-1.588,4.008-2.953c0.491-0.286,0.984-0.533,1.446-0.759c-1.118-0.215-3.436-0.47-5.334,0.627
		c-2.615,1.507-3.423,4.982-3.423,4.982s3.415,1.037,6.03-0.472C42.521,61.278,43.466,59.157,43.833,58.071L43.833,58.071z
		 M43.833,58.071"/>
	<path style="fill:#4A4B54;" d="M68.167,42.914c0.431-0.297,0.892-0.583,1.394-0.882c2.36-1.362,4.552-1.987,4.552-1.987
		s-1.641,1.578-4.008,2.943c-0.501,0.286-0.984,0.543-1.457,0.759c1.129,0.215,3.436,0.47,5.334-0.627
		c2.615-1.507,3.423-4.982,3.423-4.982s-3.412-1.037-6.03,0.472C69.479,39.706,68.545,41.827,68.167,42.914L68.167,42.914z
		 M68.167,42.914"/>
	<path style="fill:#4A4B54;" d="M45.844,34.188c-0.391-0.575-0.79-1.189-1.179-1.866c-1.838-3.168-2.678-6.101-2.678-6.101
		s2.124,2.194,3.948,5.373c0.391,0.667,0.727,1.323,1.026,1.948c0.286-1.507,0.625-4.604-0.843-7.158
		c-2.019-3.496-6.686-4.583-6.686-4.583s-1.383,4.573,0.638,8.08C41.536,32.424,44.387,33.687,45.844,34.188L45.844,34.188z
		 M45.844,34.188"/>
	<path style="fill:#4A4B54;" d="M66.167,66.806c0.391,0.564,0.79,1.179,1.179,1.856c1.827,3.179,2.677,6.111,2.677,6.111
		s-2.124-2.205-3.958-5.373c-0.381-0.677-0.717-1.323-1.016-1.948c-0.286,1.507-0.625,4.604,0.843,7.148
		c2.019,3.496,6.686,4.594,6.686,4.594s1.383-4.586-0.638-8.082C70.474,68.56,67.613,67.297,66.167,66.806L66.167,66.806z
		 M66.167,66.806"/>
	<path style="fill:#4A4B54;" d="M34.596,51.23c-3.662,0-6.626-0.738-6.626-0.738s2.964-0.738,6.626-0.738
		c0.78,0,1.517,0.039,2.205,0.092c-1.16-1.005-3.683-2.851-6.626-2.851c-4.04,0-7.311,3.496-7.311,3.496s3.281,3.496,7.311,3.496
		c2.943,0,5.465-1.845,6.626-2.851C36.102,51.19,35.375,51.23,34.596,51.23L34.596,51.23z M34.596,51.23"/>
	<path style="fill:#4A4B54;" d="M81.825,47.006c-2.943,0-5.455,1.835-6.615,2.84c0.688-0.053,1.415-0.092,2.194-0.092
		c3.662,0,6.626,0.738,6.626,0.738s-2.964,0.738-6.626,0.738c-0.78,0-1.507-0.039-2.194-0.092c1.16,1.016,3.672,2.851,6.615,2.851
		c4.04,0,7.311-3.496,7.311-3.496S85.865,47.006,81.825,47.006L81.825,47.006z M81.825,47.006"/>
	<path style="fill:#4A4B54;" d="M45.936,69.4c-1.824,3.168-3.948,5.373-3.948,5.373s0.84-2.943,2.678-6.111
		c0.388-0.667,0.787-1.281,1.179-1.866c-1.457,0.501-4.308,1.764-5.772,4.315c-2.032,3.497-0.638,8.082-0.638,8.082
		s4.667-1.087,6.686-4.586c1.467-2.552,1.139-5.649,0.843-7.156C46.652,68.077,46.327,68.723,45.936,69.4L45.936,69.4z M45.936,69.4
		"/>
	<path style="fill:#4A4B54;" d="M66.064,31.584c1.835-3.168,3.958-5.363,3.958-5.363s-0.85,2.932-2.688,6.101
		c-0.378,0.667-0.777,1.291-1.168,1.866c1.446-0.501,4.297-1.764,5.772-4.316c2.021-3.499,0.638-8.082,0.638-8.082
		s-4.667,1.097-6.686,4.594c-1.478,2.544-1.139,5.641-0.853,7.148C65.348,32.918,65.676,32.262,66.064,31.584L66.064,31.584z
		 M66.064,31.584"/>
</g>
</svg>
